#N canvas 987 96 1920 944 12;
#X obj 65 204 *~;
#X obj 117 31 bng 19 250 50 0 empty empty empty 0 -10 0 12 #fcfcfc #000000 #000000;
#X msg 137 82 1 1000;
#X obj 190 174 line;
#X obj 207 49 delay 1000;
#X obj 213 81 bng 19 250 50 0 empty empty empty 0 -10 0 12 #fcfcfc #000000 #000000;
#X obj 309 100 delay 3000;
#X obj 337 145 bng 19 250 50 0 empty empty empty 0 -10 0 12 #fcfcfc #000000 #000000;
#X msg 338 231 0 1000;
#X msg 242 133 0.5 1500;
#X obj 69 144 *~ 0.5;
#X floatatom 196 230 5 0 0 0 - - - 0;
#X obj 49 327 dac~;
#X obj 63 259 *~ 1;
#X obj 783 204 *~;
#X obj 835 31 bng 19 250 50 0 empty empty empty 0 -10 0 12 #fcfcfc #000000 #000000;
#X msg 855 82 1 1000;
#X obj 908 174 line;
#X obj 925 49 delay 1000;
#X obj 931 81 bng 19 250 50 0 empty empty empty 0 -10 0 12 #fcfcfc #000000 #000000;
#X obj 1027 100 delay 3000;
#X obj 1055 145 bng 19 250 50 0 empty empty empty 0 -10 0 12 #fcfcfc #000000 #000000;
#X msg 1056 231 0 1000;
#X msg 960 133 0.5 1500;
#X obj 787 144 *~ 0.5;
#X floatatom 914 230 5 0 0 0 - - - 0;
#X obj 767 327 dac~;
#X obj 781 259 *~ 1;
#X obj 1406 204 *~;
#X obj 1458 31 bng 19 250 50 0 empty empty empty 0 -10 0 12 #fcfcfc #000000 #000000;
#X msg 1478 82 1 1000;
#X obj 1531 174 line;
#X obj 1548 49 delay 1000;
#X obj 1554 81 bng 19 250 50 0 empty empty empty 0 -10 0 12 #fcfcfc #000000 #000000;
#X obj 1650 100 delay 3000;
#X obj 1678 145 bng 19 250 50 0 empty empty empty 0 -10 0 12 #fcfcfc #000000 #000000;
#X msg 1679 231 0 1000;
#X msg 1583 133 0.5 1500;
#X obj 1410 144 *~ 0.5;
#X floatatom 1537 230 5 0 0 0 - - - 0;
#X obj 1390 327 dac~;
#X obj 1404 259 *~ 1;
#X obj 783 524 *~;
#X obj 835 351 bng 19 250 50 0 empty empty empty 0 -10 0 12 #fcfcfc #000000 #000000;
#X msg 855 402 1 1000;
#X obj 908 494 line;
#X obj 925 369 delay 1000;
#X obj 931 401 bng 19 250 50 0 empty empty empty 0 -10 0 12 #fcfcfc #000000 #000000;
#X obj 1027 420 delay 3000;
#X obj 1055 465 bng 19 250 50 0 empty empty empty 0 -10 0 12 #fcfcfc #000000 #000000;
#X msg 1056 551 0 1000;
#X msg 960 453 0.5 1500;
#X obj 787 464 *~ 0.5;
#X floatatom 914 550 5 0 0 0 - - - 0;
#X obj 767 647 dac~;
#X obj 781 579 *~ 1;
#X obj 65 797 *~;
#X obj 117 624 bng 19 250 50 0 empty empty empty 0 -10 0 12 #fcfcfc #000000 #000000;
#X msg 137 675 1 1000;
#X obj 190 767 line;
#X obj 207 642 delay 1000;
#X obj 213 674 bng 19 250 50 0 empty empty empty 0 -10 0 12 #fcfcfc #000000 #000000;
#X obj 309 693 delay 3000;
#X obj 337 738 bng 19 250 50 0 empty empty empty 0 -10 0 12 #fcfcfc #000000 #000000;
#X msg 338 824 0 1000;
#X msg 242 726 0.5 1500;
#X obj 69 737 *~ 0.5;
#X floatatom 196 823 5 0 0 0 - - - 0;
#X obj 49 920 dac~;
#X obj 63 852 *~ 1;
#X obj 783 797 *~;
#X obj 835 624 bng 19 250 50 0 empty empty empty 0 -10 0 12 #fcfcfc #000000 #000000;
#X msg 855 675 1 1000;
#X obj 908 767 line;
#X obj 925 642 delay 1000;
#X obj 931 674 bng 19 250 50 0 empty empty empty 0 -10 0 12 #fcfcfc #000000 #000000;
#X obj 1027 693 delay 3000;
#X obj 1055 738 bng 19 250 50 0 empty empty empty 0 -10 0 12 #fcfcfc #000000 #000000;
#X msg 1056 824 0 1000;
#X msg 960 726 0.5 1500;
#X obj 787 737 *~ 0.5;
#X floatatom 914 823 5 0 0 0 - - - 0;
#X obj 767 920 dac~;
#X obj 781 852 *~ 1;
#X obj 1406 796 *~;
#X obj 1458 623 bng 19 250 50 0 empty empty empty 0 -10 0 12 #fcfcfc #000000 #000000;
#X msg 1478 674 1 1000;
#X obj 1531 766 line;
#X obj 1548 641 delay 1000;
#X obj 1554 673 bng 19 250 50 0 empty empty empty 0 -10 0 12 #fcfcfc #000000 #000000;
#X obj 1650 692 delay 3000;
#X obj 1678 737 bng 19 250 50 0 empty empty empty 0 -10 0 12 #fcfcfc #000000 #000000;
#X msg 1679 823 0 1000;
#X msg 1583 725 0.5 1500;
#X obj 1410 736 *~ 0.5;
#X floatatom 1537 822 5 0 0 0 - - - 0;
#X obj 1390 919 dac~;
#X obj 1404 851 *~ 1;
#X msg 1840 656 107.58;
#X msg 1839 703 184.79;
#X msg 1841 747 194.78;
#X msg 1839 789 212.67;
#X msg 1838 829 164.68;
#X msg 1837 870 109.29;
#X msg 1836 910 191.97;
#X obj 71 104 osc~ 107.58;
#X obj 789 104 osc~ 184.79;
#X obj 1412 104 osc~ 194.78;
#X obj 789 424 osc~ 212.67;
#X obj 71 697 osc~ 164.68;
#X obj 789 697 osc~ 109.29;
#X obj 1412 696 osc~ 191.97;
#X connect 0 0 13 0;
#X connect 1 0 2 0;
#X connect 1 0 4 0;
#X connect 2 0 3 0;
#X connect 3 0 11 0;
#X connect 4 0 5 0;
#X connect 5 0 6 0;
#X connect 5 0 9 0;
#X connect 6 0 7 0;
#X connect 7 0 8 0;
#X connect 8 0 3 0;
#X connect 9 0 3 0;
#X connect 10 0 0 0;
#X connect 11 0 0 1;
#X connect 13 0 12 0;
#X connect 13 0 12 1;
#X connect 14 0 27 0;
#X connect 15 0 16 0;
#X connect 15 0 18 0;
#X connect 16 0 17 0;
#X connect 17 0 25 0;
#X connect 18 0 19 0;
#X connect 19 0 20 0;
#X connect 19 0 23 0;
#X connect 20 0 21 0;
#X connect 21 0 22 0;
#X connect 22 0 17 0;
#X connect 23 0 17 0;
#X connect 24 0 14 0;
#X connect 25 0 14 1;
#X connect 27 0 26 0;
#X connect 27 0 26 1;
#X connect 28 0 41 0;
#X connect 29 0 30 0;
#X connect 29 0 32 0;
#X connect 30 0 31 0;
#X connect 31 0 39 0;
#X connect 32 0 33 0;
#X connect 33 0 34 0;
#X connect 33 0 37 0;
#X connect 34 0 35 0;
#X connect 35 0 36 0;
#X connect 36 0 31 0;
#X connect 37 0 31 0;
#X connect 38 0 28 0;
#X connect 39 0 28 1;
#X connect 41 0 40 0;
#X connect 41 0 40 1;
#X connect 42 0 55 0;
#X connect 43 0 44 0;
#X connect 43 0 46 0;
#X connect 44 0 45 0;
#X connect 45 0 53 0;
#X connect 46 0 47 0;
#X connect 47 0 48 0;
#X connect 47 0 51 0;
#X connect 48 0 49 0;
#X connect 49 0 50 0;
#X connect 50 0 45 0;
#X connect 51 0 45 0;
#X connect 52 0 42 0;
#X connect 53 0 42 1;
#X connect 55 0 54 0;
#X connect 55 0 54 1;
#X connect 56 0 69 0;
#X connect 57 0 58 0;
#X connect 57 0 60 0;
#X connect 58 0 59 0;
#X connect 59 0 67 0;
#X connect 60 0 61 0;
#X connect 61 0 62 0;
#X connect 61 0 65 0;
#X connect 62 0 63 0;
#X connect 63 0 64 0;
#X connect 64 0 59 0;
#X connect 65 0 59 0;
#X connect 66 0 56 0;
#X connect 67 0 56 1;
#X connect 69 0 68 0;
#X connect 69 0 68 1;
#X connect 70 0 83 0;
#X connect 71 0 72 0;
#X connect 71 0 74 0;
#X connect 72 0 73 0;
#X connect 73 0 81 0;
#X connect 74 0 75 0;
#X connect 75 0 76 0;
#X connect 75 0 79 0;
#X connect 76 0 77 0;
#X connect 77 0 78 0;
#X connect 78 0 73 0;
#X connect 79 0 73 0;
#X connect 80 0 70 0;
#X connect 81 0 70 1;
#X connect 83 0 82 0;
#X connect 83 0 82 1;
#X connect 84 0 97 0;
#X connect 85 0 86 0;
#X connect 85 0 88 0;
#X connect 86 0 87 0;
#X connect 87 0 95 0;
#X connect 88 0 89 0;
#X connect 89 0 90 0;
#X connect 89 0 93 0;
#X connect 90 0 91 0;
#X connect 91 0 92 0;
#X connect 92 0 87 0;
#X connect 93 0 87 0;
#X connect 94 0 84 0;
#X connect 95 0 84 1;
#X connect 97 0 96 0;
#X connect 97 0 96 1;
#X connect 105 0 10 0;
#X connect 106 0 24 0;
#X connect 107 0 38 0;
#X connect 108 0 52 0;
#X connect 109 0 66 0;
#X connect 110 0 80 0;
#X connect 111 0 94 0;
